<?xml version="1.0" encoding="iso-8859-1"?>
<!-- Generator: Adobe Illustrator 19.0.0, SVG Export Plug-In . SVG Version: 6.00 Build 0)  -->
<svg version="1.1" id="Capa_1" xmlns="http://www.w3.org/2000/svg" xmlns:xlink="http://www.w3.org/1999/xlink" x="0px" y="0px"
	 viewBox="0 0 384 384" style="enable-background:new 0 0 384 384;" xml:space="preserve">
<g>
	<g>
		<g>
			<polygon points="85.333,170.667 0,170.667 0,213.333 85.333,213.333 85.333,256 128,256 128,128 85.333,128 			"/>
			<rect x="0" y="298.667" width="128" height="42.667"/>
			<rect x="0" y="42.667" width="213.333" height="42.667"/>
			<rect x="170.667" y="170.667" width="213.333" height="42.667"/>
			<polygon points="298.667,42.667 298.667,0 256,0 256,128 298.667,128 298.667,85.333 384,85.333 384,42.667 			"/>
			<polygon points="213.333,256 170.667,256 170.667,384 213.333,384 213.333,341.333 384,341.333 384,298.667 213.333,298.667 			
				"/>
		</g>
	</g>
</g>
<g>
</g>
<g>
</g>
<g>
</g>
<g>
</g>
<g>
</g>
<g>
</g>
<g>
</g>
<g>
</g>
<g>
</g>
<g>
</g>
<g>
</g>
<g>
</g>
<g>
</g>
<g>
</g>
<g>
</g>
</svg>
