<svg id="Capa_1" height="512pt" viewBox="0 0 512 512" width="512pt" xmlns="http://www.w3.org/2000/svg"><path d="m496.386719 0h-428.640625c-8.628906 0-15.617188 6.996094-15.617188 15.613281v276.238281h-36.515625c-8.617187 0-15.613281 6.984376-15.613281 15.613282v188.921875c0 8.617187 6.996094 15.613281 15.613281 15.613281h188.921875c8.628906 0 15.613282-6.996094 15.613282-15.613281v-36.515625h276.238281c8.617187 0 15.613281-6.988282 15.613281-15.617188v-428.640625c0-8.617187-6.996094-15.613281-15.613281-15.613281zm-307.464844 480.773438h-157.695313v-157.695313h135.605469l-72.585937 72.585937c-6.089844 6.101563-6.089844 15.988282 0 22.078126 6.09375 6.09375 15.96875 6.121093 22.089844 0l72.585937-72.585938zm291.851563-52.132813h-260.625v-114.710937l121.730468-121.730469v62.457031c0 8.628906 6.984375 15.613281 15.613282 15.613281 8.621093 0 15.613281-6.984375 15.613281-15.613281v-100.148438c0-8.90625-7.28125-15.613281-15.613281-15.613281h-100.148438c-8.628906 0-15.613281 6.992188-15.613281 15.613281 0 8.628907 6.984375 15.613282 15.613281 15.613282h62.457031l-121.738281 121.730468h-114.703125v-260.625h397.414063zm0 0"/></svg>
